<?xml version="1.0" standalone="no"?>
<!DOCTYPE svg PUBLIC "-//W3C//DTD SVG 20010904//EN"
 "http://www.w3.org/TR/2001/REC-SVG-20010904/DTD/svg10.dtd">
<svg version="1.0" xmlns="http://www.w3.org/2000/svg"
 width="16.000000pt" height="16.000000pt" viewBox="0 0 16.000000 16.000000"
 preserveAspectRatio="xMidYMid meet">
<metadata>
Created by potrace 1.11, written by Peter Selinger 2001-2013
</metadata>
<g transform="translate(0.000000,16.000000) scale(0.006154,-0.006154)"
fill="#000000" stroke="none">
<path d="M995 1418 c10 -106 17 -223 18 -303 1 -75 -31 -218 -46 -208 -5 3
-13 -1 -18 -8 -7 -12 -11 -11 -25 3 -17 16 -17 18 1 38 39 43 -1 200 -52 200
-9 0 -24 7 -33 15 -10 9 -47 16 -107 19 -185 10 -264 46 -336 156 -10 13 -17
20 -18 15 0 -6 -2 -19 -5 -30 -5 -25 -5 -210 0 -250 2 -16 7 -56 11 -87 8 -68
18 -79 35 -38 19 45 83 106 137 131 48 22 237 59 260 51 7 -2 15 -13 19 -24 5
-15 -7 -32 -50 -73 -31 -30 -56 -59 -56 -64 0 -20 149 109 152 132 l3 22 14
-25 c9 -16 10 -25 3 -28 -7 -2 -4 -14 6 -32 13 -23 14 -34 6 -47 -14 -22 -39
-24 -39 -3 -1 8 -7 13 -15 11 -8 -1 -25 -4 -36 -5 -25 -3 -152 -87 -181 -119
-28 -31 -61 -83 -46 -74 7 4 20 -5 33 -24 19 -25 21 -35 11 -55 -6 -13 -17
-24 -24 -24 -8 0 -36 27 -63 59 -27 33 -52 60 -55 60 -3 1 -45 -33 -92 -75
l-87 -76 58 -67 c31 -36 60 -67 65 -69 10 -5 9 -42 -1 -42 -5 0 -19 14 -31 31
-24 32 -84 64 -137 72 -55 8 -152 -39 -140 -69 3 -7 -5 -15 -17 -18 -23 -5
-57 -53 -57 -79 0 -9 -14 -31 -30 -49 -29 -30 -30 -37 -24 -83 9 -67 18 -78
68 -71 50 7 81 29 109 77 19 34 20 40 8 92 -24 99 0 130 100 131 100 1 139
-40 100 -105 -12 -19 -21 -46 -21 -61 0 -28 -22 -39 -35 -18 -11 18 -60 10
-98 -15 -83 -57 -101 -185 -26 -188 13 0 33 2 44 6 19 6 21 3 22 -30 1 -21 4
-53 8 -71 l7 -32 985 0 984 0 -5 58 c-3 31 -9 68 -14 82 -13 36 14 77 63 93
30 10 48 26 72 62 18 27 30 52 27 56 -2 5 8 22 24 40 25 28 29 30 41 15 12
-14 12 -16 -3 -10 -33 13 -15 -16 19 -30 19 -8 38 -22 41 -31 13 -33 65 -4 69
40 2 16 -15 46 -24 41 -4 -3 -20 2 -35 10 -33 17 -39 17 -31 4 11 -18 -20 -10
-57 15 -20 14 -42 25 -47 25 -6 0 -11 4 -11 8 0 5 -11 14 -25 20 -28 13 -34 2
-9 -19 14 -11 14 -13 0 -21 -11 -6 -16 -23 -16 -49 0 -52 -30 -97 -62 -93 -13
1 -37 3 -53 3 -25 1 -32 7 -44 38 -7 21 -13 47 -13 58 0 35 53 170 71 179 29
16 121 121 116 133 -5 14 46 54 109 84 51 25 52 27 33 53 -11 14 -17 15 -42 6
-57 -22 -203 -48 -213 -38 -6 6 -18 6 -31 -1 -12 -7 -21 -9 -21 -6 0 3 -10 0
-22 -7 -13 -7 -25 -13 -28 -13 -29 -7 -60 -27 -55 -35 4 -6 -10 -17 -30 -26
-47 -19 -52 -35 -23 -86 18 -33 29 -42 46 -41 28 3 30 -25 4 -57 l-18 -22 -32
36 c-18 20 -32 43 -32 51 0 8 -6 15 -13 15 -7 0 -21 6 -32 14 -17 12 -16 14
13 31 37 22 60 61 45 76 -7 7 -14 5 -23 -6 -15 -18 -60 -20 -60 -2 0 7 8 22
18 33 9 10 66 82 126 159 60 77 125 154 144 170 92 78 104 100 50 92 -54 -7
-113 -40 -116 -63 -5 -35 -250 -314 -268 -307 -16 6 -16 38 1 76 5 12 3 17 -7
17 -21 0 -43 -28 -63 -76 l-16 -42 -45 43 c-46 45 -47 50 -29 120 3 11 10 45
17 75 14 67 14 66 33 50 11 -9 19 -10 26 -3 8 8 5 14 -8 22 -16 8 -21 25 -26
77 -4 37 -12 71 -19 75 -16 10 -38 -8 -32 -26 4 -8 -3 -15 -17 -17 -35 -5 -62
-49 -54 -87 4 -17 12 -31 19 -31 9 0 7 -13 -8 -45 -23 -49 -32 -54 -41 -26 -9
30 -68 87 -114 111 -108 55 -251 16 -320 -87 l-28 -42 0 77 c0 50 4 84 14 98
7 12 15 42 17 67 2 25 13 61 25 80 11 19 21 44 21 56 0 18 -3 20 -19 12 -10
-6 -24 -24 -31 -41 -10 -24 -17 -29 -34 -24 -11 3 -25 10 -30 15 -15 13 -54
11 -59 -3 -2 -7 -8 10 -12 37 -11 69 -22 95 -41 95 -15 0 -16 -9 -9 -72z m697
-286 c-3 -9 -8 -10 -18 -1 -11 9 -11 16 -2 32 11 21 11 21 18 2 4 -11 5 -26 2
-33z m-191 -19 c13 -17 13 -17 -6 -3 -11 8 -22 16 -24 17 -2 2 0 3 6 3 6 0 17
-8 24 -17z m195 -120 c-6 -87 -13 -105 -35 -94 -27 15 -24 65 6 115 16 25 29
46 31 46 2 0 1 -30 -2 -67z m-268 3 c25 -8 50 -52 45 -77 -5 -20 -54 -14 -66
8 -7 11 -12 12 -23 2 -12 -10 -19 -8 -34 9 -27 28 -25 39 7 56 28 14 34 15 71
2z m306 -178 c34 -28 48 -69 27 -82 -4 -3 -6 6 -3 20 9 46 -81 99 -127 75 -20
-11 -19 -45 2 -58 5 -3 7 -1 4 4 -13 21 18 34 52 22 35 -12 54 -39 45 -63 -10
-27 -92 6 -120 49 -46 70 45 95 120 33z m740 18 c-46 -31 -173 -96 -188 -96
-21 0 -21 24 0 41 17 14 155 63 188 66 19 2 19 2 0 -11z m-1460 -7 c29 -13 40
-35 24 -45 -6 -4 -8 -3 -5 3 18 29 -60 49 -109 28 -34 -14 -38 -21 -35 -60 2
-17 0 -17 -8 -5 -19 27 -12 50 22 70 36 22 74 25 111 9z m-10 -35 c19 -7 21
-37 4 -52 -33 -26 -98 -11 -98 24 0 26 56 43 94 28z m-461 -61 c-4 -10 -2 -14
4 -10 5 3 22 -6 37 -22 25 -26 26 -28 8 -44 -17 -15 -19 -15 -36 6 -11 12 -25
30 -33 39 -11 13 -12 21 -3 37 13 24 32 19 23 -6z m-107 -38 c-1 -25 2 -45 7
-45 4 0 6 -4 3 -9 -10 -16 24 -36 42 -24 32 20 18 73 -19 73 -12 0 -19 7 -19
20 0 31 13 24 59 -30 l42 -50 -33 -30 -33 -30 -53 57 -53 57 28 27 c15 16 29
28 29 28 1 1 1 -19 0 -44z m1809 37 c-13 -11 -65 -33 -65 -27 0 2 12 11 28 19
30 17 52 21 37 8z m-1755 -88 c0 -16 -16 -19 -25 -4 -8 13 4 32 16 25 5 -4 9
-13 9 -21z m-352 -186 c-2 -13 -11 -24 -21 -26 -15 -3 -16 0 -6 22 15 32 32
34 27 4z m1872 12 c0 -5 -2 -10 -4 -10 -3 0 -8 5 -11 10 -3 6 -1 10 4 10 6 0
11 -4 11 -10z m-1499 -43 c5 -53 -14 -90 -58 -114 -34 -18 -35 -18 -49 1 -8
11 -13 31 -13 45 l2 26 4 -25 c5 -27 21 -50 33 -50 4 0 16 8 27 18 10 9 13 13
6 8 -16 -10 -43 10 -43 32 0 9 12 33 26 54 22 31 29 36 45 27 11 -5 20 -15 20
-22z m1414 -8 c11 -17 -1 -21 -15 -4 -8 9 -8 15 -2 15 6 0 14 -5 17 -11z m215
-57 c50 -51 54 -152 5 -152 l-25 0 20 20 c24 24 25 41 4 86 -20 41 -52 54 -72
28 -13 -18 -14 -17 -7 6 14 47 36 51 75 12z m-11 -73 c11 -33 5 -59 -14 -59
-29 0 -54 63 -34 86 15 19 36 7 48 -27z m-1815 -5 c9 -23 7 -52 -3 -58 -4 -3
-8 7 -7 22 1 37 -32 41 -63 8 -44 -47 -6 -101 42 -59 21 17 21 17 7 -1 -31
-40 -90 -37 -90 4 0 63 95 133 114 84z m1921 -35 c-10 -15 -25 -10 -19 6 4 8
10 12 15 9 5 -3 7 -10 4 -15z m-1805 -7 c0 -11 -22 -32 -32 -32 -5 0 -4 9 2
20 11 20 30 28 30 12z m-100 -122 c0 -20 -25 -38 -37 -26 -5 5 24 46 34 46 1
0 3 -9 3 -20z m182 -26 c-5 -24 -31 -54 -47 -54 -7 0 -16 8 -20 18 -5 14 -4
15 6 5 19 -19 32 -16 20 4 -7 13 -5 23 6 36 20 22 39 17 35 -9z"/>
<path d="M560 700 c0 -5 5 -10 11 -10 5 0 7 5 4 10 -3 6 -8 10 -11 10 -2 0 -4
-4 -4 -10z"/>
</g>
</svg>
